<?xml version="1.0" encoding="utf-8"?>
<!-- Generator: Adobe Illustrator 19.1.0, SVG Export Plug-In . SVG Version: 6.00 Build 0)  -->
<svg version="1.1" id="Layer_1" xmlns="http://www.w3.org/2000/svg" xmlns:xlink="http://www.w3.org/1999/xlink" x="0px" y="0px"
	 viewBox="-181 231.3 149 52.1" style="enable-background:new -181 231.3 149 52.1;" xml:space="preserve">
<style type="text/css">
	.st0{fill:#FFFFFF;}
</style>
<g>
	<path class="st0" d="M-142.5,283v-39l-14,30.9h-4.7l-14.3-30.9v39h-5.5v-51.3h5.5l16.7,36.4l16.3-36.4h5.5V283H-142.5z"/>
	<path class="st0" d="M-93.2,278.1c-3.5,3.5-8,5.3-13.1,5.3s-9.6-1.9-13.1-5.3c-4.8-4.8-4.8-9.9-4.8-20.7c0-10.8,0-15.9,4.8-20.7
		c3.5-3.5,8-5.3,13.1-5.3s9.6,1.9,13.1,5.3c4.8,4.8,4.8,9.9,4.8,20.7C-88.4,268.2-88.3,273.3-93.2,278.1z M-97.4,239.9
		c-2.2-2.3-5.5-3.7-8.9-3.7s-6.6,1.4-8.9,3.7c-3.2,3.3-3.6,6.8-3.6,17.5c0,10.7,0.4,14.2,3.6,17.5c2.2,2.3,5.5,3.7,8.9,3.7
		s6.6-1.4,8.9-3.7c3.2-3.3,3.6-6.8,3.6-17.5C-93.8,246.7-94.2,243.2-97.4,239.9z"/>
	<path class="st0" d="M-61.8,236.6V283h-5.5v-46.4h-14.8v-4.9H-47v4.9H-61.8z"/>
	<path class="st0" d="M-37.4,283v-51.3h5.5V283H-37.4z"/>
</g>
</svg>
